<svg width="1216" height="110" viewBox="0 0 1216 110" fill="none" xmlns="http://www.w3.org/2000/svg">
<g clip-path="url(#clip0_22_358)">
<path fill-rule="evenodd" clip-rule="evenodd" d="M1216 1H0V0H1216V1Z" fill="#E5E7EB"/>
<g clip-path="url(#clip1_22_358)">
<path d="M186.799 60.8442C186.658 60.503 186.526 60.1442 186.385 59.838L185.732 58.3767L185.705 58.3505C183.764 54.1505 181.691 49.8805 179.494 45.6805L179.405 45.5055C179.185 45.0942 178.964 44.6392 178.735 44.2192C178.452 43.7205 178.179 43.1867 177.729 42.6792C177.29 42.1482 176.738 41.7204 176.113 41.4266C175.487 41.1329 174.803 40.9805 174.111 40.9805C173.419 40.9805 172.735 41.1329 172.11 41.4266C171.484 41.7204 170.932 42.1482 170.494 42.6792C170.079 43.1867 169.77 43.7205 169.488 44.2192C169.267 44.6742 169.047 45.1205 168.817 45.5317L168.729 45.7067C166.567 49.9067 164.458 54.1767 162.517 58.3767L162.464 58.4292C162.27 58.8842 162.041 59.3567 161.82 59.8642C161.679 60.1705 161.538 60.503 161.397 60.8705C161.015 61.8328 160.894 62.877 161.043 63.9001C161.193 64.9233 161.609 65.8901 162.25 66.7053C162.892 67.5205 163.736 68.1559 164.7 68.549C165.665 68.942 166.715 69.0791 167.749 68.9467C168.741 68.8173 169.695 68.4899 170.555 67.9842C171.702 67.3455 172.805 66.418 174.041 65.0792C175.276 66.418 176.405 67.3455 177.526 67.993C178.604 68.6202 179.824 68.9664 181.073 68.9992C182.519 69.0052 183.919 68.492 185.014 67.5543C186.109 66.6167 186.824 65.318 187.029 63.898C187.265 62.8775 187.185 61.8101 186.799 60.8355V60.8442ZM174.129 62.2967C172.611 60.3717 171.623 58.6042 171.288 57.0905C171.149 56.5295 171.119 55.9475 171.199 55.3755C171.261 54.9292 171.429 54.5355 171.658 54.203C172.188 53.4417 173.114 52.9692 174.129 52.9692C174.611 52.9546 175.089 53.0589 175.52 53.2727C175.951 53.4865 176.322 53.8032 176.599 54.1942C176.829 54.5442 176.997 54.9292 177.049 55.3755C177.138 55.883 177.102 56.4692 176.961 57.0905C176.626 58.578 175.638 60.363 174.129 62.2967ZM185.37 63.5917C185.27 64.3127 184.981 64.995 184.532 65.5707C184.083 66.1464 183.49 66.5954 182.811 66.873C182.141 67.153 181.399 67.2317 180.676 67.153C179.97 67.0655 179.264 66.838 178.541 66.418C177.339 65.6817 176.259 64.7668 175.338 63.7055C177.191 61.4305 178.311 59.3567 178.735 57.5105C178.938 56.6355 178.964 55.848 178.876 55.1217C178.766 54.4333 178.507 53.7767 178.117 53.1967C177.672 52.5678 177.078 52.057 176.387 51.7091C175.696 51.3613 174.93 51.187 174.155 51.2017C172.523 51.2017 171.067 51.9542 170.185 53.188C169.788 53.7665 169.531 54.4284 169.435 55.1217C169.32 55.8567 169.347 56.6705 169.576 57.5105C169.999 59.3567 171.147 61.4567 172.973 63.723C172.067 64.8046 170.985 65.7275 169.77 66.453C169.038 66.873 168.341 67.0917 167.635 67.1792C166.537 67.3187 165.428 67.0228 164.549 66.3559C163.67 65.6891 163.092 64.7051 162.941 63.618C162.852 62.918 162.914 62.218 163.197 61.4305C163.285 61.1505 163.417 60.8705 163.558 60.538C163.752 60.083 163.982 59.6105 164.202 59.138L164.238 59.0767C166.144 54.903 168.226 50.6417 170.388 46.468L170.476 46.293C170.697 45.873 170.917 45.4267 171.147 45.0067C171.376 44.5605 171.623 44.1317 171.941 43.7817C172.216 43.4562 172.559 43.1945 172.947 43.0149C173.335 42.8353 173.758 42.7422 174.186 42.7422C174.614 42.7422 175.037 42.8353 175.425 43.0149C175.813 43.1945 176.157 43.4562 176.432 43.7817C176.741 44.1317 176.997 44.5605 177.226 45.0067C177.447 45.4267 177.667 45.8817 177.897 46.293L177.985 46.468C180.138 50.6417 182.22 54.903 184.161 59.0767L184.188 59.103C184.417 59.558 184.611 60.0655 184.832 60.503C184.973 60.8442 185.114 61.1155 185.202 61.4042C185.37 62.1917 185.458 62.8917 185.37 63.5917ZM197.652 62.1042C196.988 62.1139 196.329 61.9749 195.726 61.6977C195.122 61.4205 194.59 61.0122 194.167 60.503C193.218 59.4179 192.714 58.0189 192.755 56.583C192.741 55.1158 193.261 53.6927 194.22 52.5755C194.664 52.0598 195.216 51.6468 195.838 51.3656C196.46 51.0844 197.137 50.9418 197.82 50.948C198.463 50.9305 199.1 51.0755 199.671 51.3694C200.243 51.6633 200.729 52.0964 201.085 52.628L201.173 51.2542H203.749V61.8242H201.164L201.076 60.2842C200.709 60.8518 200.202 61.3169 199.603 61.6355C199.004 61.954 198.332 62.1154 197.652 62.1042ZM198.323 59.5842C198.835 59.5842 199.285 59.4442 199.708 59.1905C200.097 58.9105 200.414 58.543 200.661 58.0967C200.882 57.6505 200.997 57.1167 200.997 56.5217C201.031 56.0049 200.929 55.4882 200.702 55.0219C200.475 54.5556 200.129 54.1559 199.699 53.8617C199.286 53.6065 198.81 53.4713 198.323 53.4713C197.836 53.4713 197.36 53.6065 196.947 53.8617C196.558 54.1417 196.241 54.5092 195.994 54.9555C195.76 55.4476 195.645 55.9868 195.658 56.5305C195.624 57.0472 195.725 57.564 195.953 58.0303C196.18 58.4965 196.526 58.8963 196.955 59.1905C197.37 59.4442 197.82 59.5842 198.323 59.5842ZM208.161 48.4017C208.161 48.708 208.108 48.988 207.967 49.2155C207.826 49.4342 207.632 49.6355 207.376 49.7755C207.12 49.9155 206.847 49.968 206.564 49.968C206.282 49.968 205.999 49.9155 205.744 49.7755C205.502 49.6419 205.298 49.4491 205.152 49.2155C205.016 48.9662 204.949 48.6853 204.958 48.4017C204.958 48.0867 205.02 47.8067 205.152 47.588C205.294 47.3255 205.497 47.168 205.744 47.028C205.999 46.888 206.273 46.8267 206.564 46.8267C206.845 46.8203 207.123 46.8863 207.37 47.0182C207.618 47.1501 207.826 47.3434 207.976 47.5792C208.104 47.8343 208.168 48.1167 208.161 48.4017ZM205.161 61.7892V51.2367H207.967V61.8067H205.152L205.161 61.7892ZM215.467 54.0017V54.0367C215.335 53.9755 215.158 53.9492 215.026 53.923C214.849 53.888 214.708 53.888 214.541 53.888C213.755 53.888 213.164 54.1155 212.776 54.588C212.352 55.0692 212.158 55.743 212.158 56.6092V61.798H209.344V51.228H211.929L212.017 52.8292C212.299 52.2692 212.635 51.8492 213.111 51.5342C213.585 51.2282 214.143 51.0753 214.708 51.0967C214.911 51.0967 215.105 51.1142 215.273 51.1492C215.361 51.1755 215.414 51.1755 215.467 51.2017V54.0017ZM216.597 61.7892V46.8967H219.402V52.5842C219.799 52.0767 220.249 51.683 220.814 51.3767C221.708 50.942 222.724 50.8187 223.697 51.0267C224.67 51.2347 225.545 51.7618 226.179 52.523C227.13 53.6102 227.634 55.0128 227.591 56.4517C227.605 57.9189 227.085 59.342 226.126 60.4592C225.682 60.9749 225.13 61.3879 224.508 61.6691C223.886 61.9503 223.209 62.0928 222.526 62.0867C221.883 62.1042 221.246 61.9591 220.675 61.6653C220.103 61.3714 219.617 60.9383 219.261 60.4067L219.173 61.7805L216.597 61.8067V61.7892ZM222.023 59.5842C222.526 59.5842 222.976 59.4442 223.399 59.1905C223.788 58.9105 224.105 58.543 224.352 58.0967C224.582 57.6505 224.688 57.1167 224.688 56.5217C224.688 55.9355 224.582 55.4017 224.352 54.9555C224.121 54.5252 223.795 54.1515 223.399 53.8617C222.986 53.6065 222.51 53.4713 222.023 53.4713C221.536 53.4713 221.06 53.6065 220.647 53.8617C220.249 54.1417 219.941 54.5092 219.685 54.9555C219.451 55.4476 219.337 55.9868 219.349 56.5305C219.315 57.0472 219.417 57.564 219.644 58.0303C219.871 58.4965 220.217 58.8963 220.647 59.1905C221.061 59.4442 221.511 59.5842 222.023 59.5842ZM228.649 61.798V51.228H231.235L231.323 52.6017C231.648 52.0751 232.109 51.6442 232.658 51.3534C233.207 51.0627 233.825 50.9227 234.447 50.948C235.158 50.9358 235.857 51.1318 236.456 51.5116C237.056 51.8913 237.529 52.4379 237.817 53.083C238.126 53.748 238.294 54.5705 238.294 55.4892V61.8242H235.479V55.8567C235.479 55.1217 235.311 54.5442 234.976 54.1155C234.641 53.6955 234.182 53.468 233.599 53.468C233.176 53.468 232.805 53.5555 232.479 53.748C232.17 53.9492 231.914 54.203 231.72 54.5617C231.524 54.9244 231.426 55.3316 231.438 55.743V61.798H228.649ZM239.697 61.798V46.888H242.511V52.5755C242.892 52.0651 243.388 51.65 243.96 51.3629C244.531 51.0758 245.162 50.9248 245.802 50.9217C246.467 50.9121 247.126 51.051 247.729 51.3282C248.333 51.6054 248.865 52.0138 249.288 52.523C250.232 53.6102 250.733 55.0085 250.691 56.443C250.706 57.9103 250.186 59.3336 249.226 60.4505C248.782 60.9662 248.23 61.3792 247.608 61.6604C246.986 61.9415 246.309 62.0841 245.626 62.078C244.983 62.0954 244.346 61.9504 243.775 61.6565C243.203 61.3626 242.717 60.9295 242.361 60.398L242.282 61.7717L239.697 61.798ZM245.149 59.5842C245.661 59.5842 246.111 59.4442 246.526 59.1905C246.923 58.9105 247.232 58.543 247.488 58.0967C247.708 57.6505 247.823 57.1167 247.823 56.5217C247.857 56.0049 247.756 55.4882 247.529 55.0219C247.301 54.5556 246.956 54.1559 246.526 53.8617C246.113 53.6065 245.636 53.4713 245.149 53.4713C244.663 53.4713 244.186 53.6065 243.773 53.8617C243.385 54.1417 243.067 54.5092 242.82 54.9555C242.574 55.4432 242.458 55.9856 242.485 56.5305C242.45 57.0472 242.552 57.564 242.779 58.0303C243.007 58.4965 243.352 58.8963 243.782 59.1905C244.197 59.4442 244.62 59.5842 245.149 59.5842Z" fill="#FF385C"/>
</g>
<g clip-path="url(#clip2_22_358)">
<path d="M324.313 46.9727V53.7424H317.998V46.9727H315V63.1327H317.998V56.5828H324.313V63.1327H327.312V46.9727H324.313Z" fill="#33475B"/>
<path d="M336.907 57.9089C336.907 58.5566 336.646 59.1777 336.181 59.6356C335.715 60.0936 335.084 60.3508 334.427 60.3508C333.769 60.3508 333.138 60.0936 332.673 59.6356C332.208 59.1777 331.946 58.5566 331.946 57.9089V50.9873H329.102V57.9089C329.102 59.2978 329.663 60.6298 330.66 61.6119C331.658 62.5939 333.011 63.1457 334.421 63.1457C335.832 63.1457 337.185 62.5939 338.183 61.6119C339.18 60.6298 339.741 59.2978 339.741 57.9089V50.9873H336.907V57.9089Z" fill="#33475B"/>
<path d="M357.978 51.7003C357.978 50.2816 358.931 49.8318 359.976 49.8318C360.818 49.8318 361.93 50.4624 362.657 51.2274L364.519 49.0668C363.59 47.8288 361.703 46.9727 360.16 46.9727C357.075 46.9727 354.843 48.7515 354.843 51.7003C354.843 57.1714 361.636 55.4359 361.636 58.4976C361.636 59.442 360.705 60.2764 359.638 60.2764C357.956 60.2764 357.411 59.4665 356.638 58.6104L354.572 60.7262C355.894 62.3243 357.524 63.1356 359.478 63.1356C362.409 63.1356 364.766 61.3351 364.766 58.5207C364.766 52.4466 357.974 54.3339 357.974 51.7003" fill="#33475B"/>
<path d="M400 60.5512C398.319 60.5512 397.842 59.8353 397.842 58.7391V53.887H400.453V51.4284H397.842V48.1846L394.958 49.4587V59.3421C394.958 61.8701 396.73 63.1443 399.159 63.1443C399.54 63.1511 399.921 63.1211 400.296 63.0546L401 60.5049C400.683 60.5266 400.318 60.5483 400 60.5483" fill="#33475B"/>
<path d="M347.732 51.0684C346.323 51.0684 345.34 51.4704 344.39 52.3888V47.0696H341.542V56.9285C341.542 60.6192 344.252 63.1472 347.297 63.1472C350.676 63.1472 353.647 60.5744 353.647 57.1092C353.647 53.6875 350.912 51.0698 347.732 51.0698V51.0684ZM347.714 60.3256C347.075 60.3256 346.45 60.139 345.919 59.7894C345.387 59.4398 344.973 58.9429 344.728 58.3615C344.484 57.7801 344.42 57.1404 344.545 56.5232C344.669 55.906 344.977 55.3391 345.429 54.8942C345.881 54.4492 346.457 54.1462 347.084 54.0234C347.711 53.9006 348.36 53.9636 348.951 54.2044C349.541 54.4453 350.046 54.8531 350.401 55.3763C350.756 55.8995 350.946 56.5147 350.946 57.1439C350.946 57.9878 350.605 58.797 349.999 59.3937C349.393 59.9904 348.571 60.3256 347.714 60.3256Z" fill="#33475B"/>
<path d="M378.66 56.9618C378.66 53.4909 375.694 50.9238 372.309 50.9238C369.264 50.9238 366.554 53.4518 366.554 57.1426V67.0072H369.402V61.6808C370.351 62.5977 371.335 63.0012 372.743 63.0012C375.923 63.0012 378.658 60.385 378.658 56.9618H378.66ZM375.963 56.9271C375.963 57.5564 375.773 58.1715 375.418 58.6947C375.063 59.2179 374.558 59.6258 373.968 59.8666C373.377 60.1074 372.727 60.1704 372.1 60.0476C371.473 59.9249 370.898 59.6218 370.446 59.1769C369.994 58.7319 369.686 58.165 369.561 57.5478C369.436 56.9306 369.5 56.2909 369.745 55.7095C369.99 55.1281 370.404 54.6312 370.935 54.2816C371.467 53.932 372.092 53.7454 372.731 53.7454C373.588 53.7454 374.41 54.0806 375.016 54.6773C375.622 55.274 375.963 56.0832 375.963 56.9271Z" fill="#33475B"/>
<path d="M387.861 50.7879V47.9706C388.24 47.7967 388.56 47.5205 388.785 47.1744C389.01 46.8282 389.13 46.4263 389.132 46.0153V45.9503C389.132 45.3749 388.9 44.8231 388.487 44.4163C388.073 44.0095 387.513 43.7809 386.929 43.7809H386.862C386.278 43.7809 385.718 44.0095 385.304 44.4163C384.891 44.8231 384.659 45.3749 384.659 45.9503V46.0153C384.661 46.4263 384.781 46.8282 385.006 47.1744C385.231 47.5205 385.552 47.7967 385.93 47.9706V50.7879C384.843 50.9516 383.819 51.3951 382.962 52.0736L375.115 46.0558C375.171 45.8574 375.2 45.6528 375.203 45.447C375.204 44.9635 375.059 44.4907 374.787 44.0882C374.515 43.6858 374.128 43.3718 373.674 43.1861C373.221 43.0004 372.722 42.9512 372.24 43.0448C371.758 43.1383 371.316 43.3705 370.968 43.7118C370.62 44.0532 370.383 44.4884 370.286 44.9625C370.19 45.4365 370.238 45.9281 370.426 46.375C370.613 46.8219 370.931 47.204 371.339 47.4731C371.747 47.7422 372.227 47.8862 372.718 47.8868C373.147 47.8849 373.568 47.7722 373.94 47.5599L381.668 53.4793C380.974 54.5118 380.611 55.7264 380.628 56.9647C380.646 58.203 381.041 59.4075 381.764 60.4211L379.413 62.7351C379.223 62.6753 379.025 62.6436 378.826 62.6411C378.423 62.6414 378.029 62.7593 377.693 62.98C377.358 63.2007 377.097 63.5142 376.943 63.8809C376.789 64.2477 376.749 64.6511 376.827 65.0404C376.906 65.4296 377.1 65.7872 377.385 66.0678C377.67 66.3485 378.034 66.5396 378.429 66.6171C378.824 66.6946 379.234 66.655 379.607 66.5033C379.979 66.3515 380.298 66.0944 380.522 65.7646C380.746 65.4347 380.866 65.0468 380.866 64.6499C380.864 64.4534 380.831 64.2585 380.771 64.0714L383.096 61.782C383.854 62.3565 384.736 62.7525 385.674 62.9397C386.611 63.1268 387.58 63.1003 388.506 62.8619C389.432 62.6236 390.289 62.1799 391.014 61.5647C391.739 60.9495 392.311 60.1793 392.686 59.3129C393.062 58.4465 393.231 57.507 393.181 56.5664C393.13 55.6257 392.862 54.7088 392.396 53.886C391.931 53.0631 391.28 52.3561 390.494 51.8191C389.708 51.2821 388.807 50.9294 387.861 50.7879ZM386.898 60.0523C386.262 60.0518 385.64 59.8656 385.111 59.5173C384.583 59.169 384.171 58.6742 383.928 58.0955C383.685 57.5168 383.621 56.8801 383.746 56.266C383.87 55.6518 384.177 55.0878 384.626 54.6451C385.076 54.2023 385.649 53.9009 386.273 53.7787C386.897 53.6566 387.544 53.7193 388.131 53.9589C388.719 54.1984 389.222 54.6042 389.575 55.1248C389.929 55.6454 390.117 56.2574 390.118 56.8837C390.118 57.7237 389.779 58.5293 389.175 59.1232C388.572 59.7172 387.754 60.0509 386.901 60.0509" fill="#FF7A59"/>
</g>
<g clip-path="url(#clip3_22_358)">
<path d="M500.746 55.3591C500.746 59.2456 497.661 62.1095 493.875 62.1095C490.089 62.1095 487.003 59.2456 487.003 55.3591C487.003 51.4452 490.089 48.6086 493.875 48.6086C497.661 48.6086 500.746 51.4452 500.746 55.3591ZM497.738 55.3591C497.738 52.9304 495.95 51.2686 493.875 51.2686C491.799 51.2686 490.011 52.9304 490.011 55.3591C490.011 57.7634 491.799 59.4495 493.875 59.4495C495.95 59.4495 497.738 57.7604 497.738 55.3591Z" fill="#EA4335"/>
<path d="M515.57 55.3591C515.57 59.2456 512.485 62.1095 508.698 62.1095C504.912 62.1095 501.827 59.2456 501.827 55.3591C501.827 51.4482 504.912 48.6086 508.698 48.6086C512.485 48.6086 515.57 51.4452 515.57 55.3591ZM512.562 55.3591C512.562 52.9304 510.774 51.2686 508.698 51.2686C506.623 51.2686 504.835 52.9304 504.835 55.3591C504.835 57.7634 506.623 59.4495 508.698 59.4495C510.774 59.4495 512.562 57.7604 512.562 55.3591Z" fill="#FBBC05"/>
<path d="M529.776 49.0165V61.1356C529.776 66.1208 526.792 68.1569 523.266 68.1569C519.946 68.1569 517.948 65.9686 517.194 64.1791L519.813 63.1047C520.279 64.2034 521.422 65.4999 523.263 65.4999C525.52 65.4999 526.919 64.1273 526.919 61.5434V60.5726H526.814C526.141 61.3912 524.844 62.1065 523.207 62.1065C519.782 62.1065 516.645 59.1665 516.645 55.3834C516.645 51.573 519.782 48.6086 523.207 48.6086C524.841 48.6086 526.138 49.3239 526.814 50.1182H526.919V49.0195H529.776V49.0165ZM527.132 55.3834C527.132 53.0065 525.523 51.2686 523.476 51.2686C521.4 51.2686 519.662 53.0065 519.662 55.3834C519.662 57.736 521.4 59.4495 523.476 59.4495C525.523 59.4495 527.132 57.736 527.132 55.3834Z" fill="#4285F4"/>
<path d="M534.485 41.9131V61.6957H531.551V41.9131H534.485Z" fill="#34A853"/>
<path d="M545.918 57.5809L548.253 59.1148C547.499 60.2135 545.683 62.1066 542.546 62.1066C538.655 62.1066 535.749 59.1422 535.749 55.3561C535.749 51.3418 538.679 48.6057 542.209 48.6057C545.764 48.6057 547.502 51.3935 548.071 52.9001L548.383 53.667L539.226 57.4044C539.927 58.7588 541.017 59.4496 542.546 59.4496C544.078 59.4496 545.14 58.707 545.918 57.5809ZM538.732 55.1522L544.853 52.6475C544.516 51.8044 543.503 51.217 542.311 51.217C540.782 51.217 538.655 52.547 538.732 55.1522Z" fill="#EA4335"/>
<path d="M475.899 53.6031V50.7392H485.691C485.787 51.2383 485.836 51.8287 485.836 52.4678C485.836 54.6165 485.24 57.2735 483.32 59.1665C481.451 61.0839 479.064 62.1065 475.902 62.1065C470.04 62.1065 465.111 57.4013 465.111 51.6248C465.111 45.8483 470.04 41.1431 475.902 41.1431C479.144 41.1431 481.454 42.397 483.19 44.0313L481.139 46.0522C479.895 44.9018 478.209 44.007 475.899 44.007C471.618 44.007 468.271 47.4065 468.271 51.6248C468.271 55.8431 471.618 59.2426 475.899 59.2426C478.675 59.2426 480.256 58.1439 481.269 57.1457C482.09 56.3361 482.631 55.1796 482.844 53.6L475.899 53.6031Z" fill="#4285F4"/>
</g>
<g clip-path="url(#clip4_22_358)">
<path d="M656.064 56.9753L655.336 59.0311H655.276C655.155 58.5675 654.932 57.8621 654.569 57.0156L650.671 47.2404H646.853V62.8203H649.378V53.2063C649.378 52.6017 649.378 51.9164 649.358 51.0699C649.337 50.6466 649.297 50.3241 649.277 50.0823H649.337C649.459 50.6869 649.6 51.1303 649.701 51.4125L654.387 62.78H656.165L660.81 51.3117C660.911 51.0497 661.012 50.5257 661.113 50.0823H661.174C661.113 51.2311 661.073 52.259 661.053 52.8838V62.7598H663.739V47.2001H660.063L656.064 56.9753ZM666.284 51.5939H668.91V62.7598H666.284V51.5939ZM667.617 46.8776C667.173 46.8776 666.809 47.0389 666.506 47.321C666.203 47.6032 666.042 47.966 666.042 48.4094C666.042 48.8327 666.203 49.1955 666.506 49.4776C666.809 49.7598 667.173 49.9009 667.617 49.9009C668.062 49.9009 668.445 49.7396 668.728 49.4776C669.031 49.1955 669.193 48.8327 669.193 48.4094C669.193 47.9862 669.031 47.6234 668.728 47.321C668.466 47.0389 668.082 46.8776 667.617 46.8776ZM678.222 51.4931C677.737 51.3924 677.232 51.3319 676.747 51.3319C675.555 51.3319 674.465 51.5939 673.556 52.1179C672.647 52.642 671.92 53.3675 671.455 54.2745C670.97 55.2017 670.728 56.2699 670.728 57.4993C670.728 58.5675 670.97 59.5148 671.435 60.3815C671.899 61.228 672.546 61.9133 673.414 62.3769C674.242 62.8404 675.212 63.0823 676.303 63.0823C677.555 63.0823 678.626 62.8203 679.474 62.3365L679.494 62.3164V59.8978L679.393 59.9784C679.009 60.2606 678.565 60.5024 678.121 60.6435C677.656 60.8048 677.232 60.8854 676.868 60.8854C675.818 60.8854 674.99 60.5831 674.404 59.9179C673.798 59.273 673.495 58.3862 673.495 57.2776C673.495 56.1288 673.798 55.2218 674.424 54.5567C675.05 53.8916 675.879 53.5489 676.888 53.5489C677.737 53.5489 678.605 53.8311 679.393 54.3955L679.494 54.4761V51.9164L679.474 51.8962C679.131 51.7551 678.747 51.5939 678.222 51.4931ZM686.887 51.4125C686.24 51.4125 685.634 51.6141 685.109 52.0373C684.665 52.4001 684.362 52.9241 684.099 53.5489H684.079V51.5939H681.453V62.7598H684.079V57.0559C684.079 56.0885 684.281 55.2823 684.726 54.6978C685.17 54.0931 685.735 53.7908 686.422 53.7908C686.665 53.7908 686.907 53.8513 687.21 53.8916C687.493 53.9722 687.695 54.0528 687.836 54.1536L687.937 54.2342V51.6141L687.877 51.5939C687.695 51.473 687.331 51.4125 686.887 51.4125ZM694.037 51.352C692.199 51.352 690.725 51.8962 689.694 52.9644C688.644 54.0327 688.139 55.504 688.139 57.3582C688.139 59.0916 688.664 60.5024 689.674 61.5303C690.684 62.5381 692.058 63.0621 693.775 63.0621C695.572 63.0621 697.006 62.5179 698.036 61.4296C699.087 60.3412 699.592 58.89 699.592 57.0962C699.592 55.3226 699.107 53.9117 698.117 52.8838C697.168 51.8559 695.774 51.352 694.037 51.352ZM696.138 59.9381C695.653 60.5629 694.885 60.8652 693.936 60.8652C692.987 60.8652 692.219 60.5629 691.674 59.8978C691.129 59.273 690.866 58.366 690.866 57.2172C690.866 56.028 691.149 55.121 691.674 54.4761C692.219 53.8311 692.967 53.5086 693.916 53.5086C694.845 53.5086 695.572 53.811 696.097 54.4358C696.623 55.0606 696.905 55.9675 696.905 57.1567C696.865 58.366 696.643 59.3133 696.138 59.9381ZM705.449 56.2296C704.621 55.8869 704.096 55.6249 703.854 55.4032C703.652 55.2017 703.551 54.9195 703.551 54.5567C703.551 54.2544 703.672 53.952 703.975 53.7505C704.278 53.5489 704.621 53.4482 705.126 53.4482C705.571 53.4482 706.035 53.5288 706.48 53.6497C706.924 53.7706 707.328 53.952 707.651 54.1939L707.752 54.2745V51.8156L707.691 51.7955C707.388 51.6745 706.984 51.5536 706.5 51.4528C706.015 51.3722 705.571 51.3319 705.207 51.3319C703.955 51.3319 702.925 51.6342 702.117 52.2993C701.309 52.9241 700.925 53.7706 700.925 54.7582C700.925 55.2823 701.006 55.7458 701.187 56.1288C701.369 56.5117 701.632 56.8745 701.995 57.1769C702.359 57.459 702.884 57.7815 703.611 58.0838C704.217 58.3458 704.682 58.5474 704.965 58.7086C705.247 58.8699 705.429 59.0513 705.571 59.1924C705.672 59.3536 705.732 59.5551 705.732 59.8172C705.732 60.5629 705.167 60.9257 704.015 60.9257C703.571 60.9257 703.106 60.8451 702.561 60.6637C702.016 60.4823 701.511 60.2203 701.086 59.9179L700.985 59.8373V62.397L701.046 62.4172C701.43 62.5986 701.894 62.7195 702.46 62.8606C703.026 62.9613 703.531 63.042 703.975 63.042C705.328 63.042 706.439 62.7396 707.227 62.0745C708.035 61.4296 708.459 60.6032 708.459 59.535C708.459 58.7893 708.257 58.1241 707.813 57.6203C707.227 57.1365 706.5 56.6327 705.449 56.2296ZM715.387 51.352C713.549 51.352 712.075 51.8962 711.044 52.9644C710.014 54.0327 709.489 55.504 709.489 57.3582C709.489 59.0916 710.014 60.5024 711.024 61.5303C712.034 62.5381 713.408 63.0621 715.125 63.0621C716.922 63.0621 718.356 62.5179 719.386 61.4296C720.437 60.3412 720.942 58.89 720.942 57.0962C720.942 55.3226 720.457 53.9117 719.467 52.8838C718.518 51.8559 717.124 51.352 715.387 51.352ZM717.468 59.9381C716.983 60.5629 716.215 60.8652 715.266 60.8652C714.296 60.8652 713.549 60.5629 713.004 59.8978C712.458 59.273 712.196 58.366 712.196 57.2172C712.196 56.028 712.479 55.121 713.004 54.4761C713.549 53.8311 714.296 53.5086 715.246 53.5086C716.155 53.5086 716.902 53.811 717.427 54.4358C717.952 55.0606 718.235 55.9675 718.235 57.1567C718.235 58.366 717.973 59.3133 717.468 59.9381ZM734.98 53.7505V51.5939H732.334V48.2885L732.253 48.3086L729.748 49.0544L729.688 49.0745V51.5939H725.729V50.1831C725.729 49.5381 725.89 49.0342 726.173 48.7117C726.456 48.3893 726.88 48.228 727.405 48.228C727.769 48.228 728.153 48.3086 728.577 48.49L728.678 48.5505V46.273L728.617 46.2528C728.254 46.1319 727.769 46.0513 727.143 46.0513C726.355 46.0513 725.668 46.2327 725.042 46.535C724.416 46.8776 723.951 47.3412 723.608 47.966C723.265 48.5706 723.083 49.2559 723.083 50.042V51.5939H721.245V53.7303H723.083V62.7598H725.729V53.7505H729.688V59.4947C729.688 61.8528 730.799 63.042 733.021 63.042C733.384 63.042 733.768 62.9815 734.131 62.921C734.515 62.8404 734.798 62.7396 734.96 62.659L734.98 62.6389V60.4823L734.879 60.5629C734.717 60.6637 734.576 60.7443 734.333 60.8048C734.131 60.8652 733.95 60.8854 733.808 60.8854C733.283 60.8854 732.92 60.7644 732.657 60.4621C732.415 60.18 732.293 59.7164 732.293 59.0311V53.7505H734.98Z" fill="#737373"/>
<path d="M613 42H625.382V54.355H613V42Z" fill="#F25022"/>
<path d="M626.674 42H639.056V54.355H626.674V42Z" fill="#7FBA00"/>
<path d="M613 55.645H625.382V68.0001H613V55.645Z" fill="#00A4EF"/>
<path d="M626.674 55.645H639.056V68.0001H626.674V55.645Z" fill="#FFB900"/>
</g>
<g clip-path="url(#clip5_22_358)">
<path d="M838.858 51.2478V52.7213H838.903C839.438 51.9324 840.326 51.0033 842.295 51.0033C843.826 51.0033 845.001 51.7759 845.505 52.9429H845.55C845.98 52.3529 846.473 51.9063 847.026 51.5901C847.68 51.2152 848.407 51 849.323 51C851.397 51 853.232 52.3366 853.232 55.7073V62.1H850.071V56.1539C850.071 54.4457 849.449 53.458 848.155 53.458C847.208 53.458 846.519 54.0513 846.257 54.7815C846.166 55.0325 846.124 55.3748 846.124 55.6617V62.1033H842.963V55.9127C842.963 54.462 842.365 53.4547 841.089 53.4547C840.068 53.4547 839.428 54.2045 839.165 54.8467C839.054 55.1205 839.019 55.4368 839.019 55.7334V62.1H835.854V51.2478H838.858ZM869.547 51.2478V53.295H869.635C870.215 51.7302 871.593 51.0033 872.803 51.0033C873.107 51.0033 873.275 51.0261 873.52 51.0717V53.9144C873.229 53.8753 872.96 53.8361 872.583 53.8361C871.212 53.8361 870.257 54.5794 870.016 55.7432C869.964 55.9844 869.946 56.2452 869.946 56.5451V62.1033H866.701V51.2478H869.547ZM877.925 47.6521V51.0685H880.667V53.8329H877.925V57.911C877.925 59.2313 878.285 59.8702 879.355 59.8702C879.859 59.8702 880.23 59.8115 880.551 59.7366L880.593 62.0283C880.163 62.1782 879.247 62.3412 878.317 62.3412C877.223 62.3412 876.31 61.9859 875.754 61.435C875.118 60.8058 874.824 59.7757 874.824 58.3087V47.6521H877.925ZM833.651 62.1H830.504V47.6521H833.651V62.1ZM825.259 58.224C825.259 58.4228 825.242 58.6315 825.183 58.8108C824.938 59.5638 824.102 60.1995 823.06 60.1995C822.189 60.1995 821.497 59.7398 821.497 58.7651C821.497 57.2753 823.259 56.8613 825.263 56.8711V58.224H825.259ZM828.403 55.6258C828.403 53.1646 827.277 51.0033 823.469 51.0033C821.515 51.0033 819.962 51.5151 819.116 51.9715L819.735 53.947C820.508 53.4906 821.742 53.1157 822.91 53.1157C824.843 53.1124 825.158 54.1361 825.158 54.7913V54.9478C820.945 54.9412 818.284 56.3006 818.284 59.0715C818.284 60.7634 819.637 62.3478 821.994 62.3478C823.445 62.3478 824.655 61.8099 825.382 60.946H825.452C825.452 60.946 825.934 62.8204 828.585 62.1033C828.445 61.3209 828.399 60.4896 828.399 59.4888V55.6258H828.403ZM802.476 47.6521C802.801 49.181 803.724 53.621 803.724 53.621C804.112 55.4465 804.469 57.3601 804.738 58.8727H804.787C805.049 57.2656 805.462 55.7432 805.902 53.859L807.458 47.6521H810.902L812.357 54.0187C812.738 55.7888 813.042 57.1547 813.284 58.801H813.329C813.591 57.1384 813.934 55.7171 814.308 53.8981L815.707 47.6521H819.011L814.917 62.1C812.308 62.6314 811.308 61.6534 810.951 60.1017C810.595 58.5467 809.895 55.59 809.895 55.59C809.535 53.9698 809.256 52.8288 809.06 51.1663H809.011C808.731 52.8125 808.437 53.9665 808.004 55.5867L806.287 62.1033C803.623 62.5988 802.699 61.8653 802.189 59.8735C801.748 58.1686 799 47.6554 799 47.6554H802.476V47.6521ZM861.456 58.224C861.456 58.4228 861.439 58.6315 861.379 58.8108C861.135 59.5638 860.299 60.1995 859.257 60.1995C858.386 60.1995 857.694 59.7398 857.694 58.7651C857.694 57.2753 859.456 56.8613 861.46 56.8711V58.224H861.456ZM864.6 55.6258C864.6 53.1646 863.474 51.0033 859.666 51.0033C857.711 51.0033 856.159 51.5151 855.313 51.9715L855.932 53.947C856.704 53.4906 857.939 53.1157 859.107 53.1157C861.037 53.1124 861.355 54.1361 861.355 54.7913V54.9478C857.145 54.9412 854.484 56.3006 854.484 59.0715C854.484 60.7634 855.841 62.3478 858.194 62.3478C859.642 62.3478 860.855 61.8099 861.579 60.946H861.652C861.652 60.946 862.135 62.8204 864.785 62.1033C864.645 61.3209 864.6 60.4896 864.6 59.4888V55.6258Z" fill="#041E42"/>
<path d="M893.423 57.1241C893.734 57.6517 893.713 58.2406 893.382 58.5096L887.659 62.4276C887.063 62.7646 886.17 62.3561 885.665 61.5017C885.156 60.6439 885.247 59.6874 885.843 59.3504L892.179 56.4705C892.577 56.3208 893.113 56.5965 893.423 57.1241ZM900.955 57.1241C901.269 56.5965 901.802 56.3242 902.2 56.4671L908.54 59.3469C909.136 59.6839 909.223 60.6405 908.717 61.4983C908.208 62.3527 907.313 62.7578 906.72 62.4242L900.997 58.5062C900.67 58.2406 900.645 57.6483 900.955 57.1241ZM897.188 59.2482C897.812 59.2482 898.324 59.5614 898.394 59.9733L899.011 66.7745C899.011 67.4485 898.205 68 897.191 68C896.18 68 895.372 67.4485 895.372 66.7745L895.985 59.9733C896.055 59.5614 896.567 59.2482 897.188 59.2482ZM900.997 51.4938L906.72 47.5724C907.313 47.2354 908.208 47.6405 908.717 48.4983C909.223 49.3561 909.136 50.3126 908.54 50.6496L902.2 53.5329C901.802 53.6758 901.266 53.4035 900.955 52.8759C900.645 52.3483 900.67 51.7594 900.997 51.4938ZM892.179 53.5329L885.843 50.6496C885.25 50.3126 885.16 49.3561 885.665 48.4983C886.17 47.6405 887.066 47.2354 887.659 47.5724L893.382 51.4938C893.713 51.756 893.734 52.3483 893.423 52.8759C893.113 53.4035 892.577 53.6758 892.179 53.5329ZM895.985 50.0267L895.372 43.2255C895.372 42.5515 896.177 42 897.191 42C898.205 42 899.011 42.5515 899.011 43.2255L898.394 50.0267C898.324 50.4352 897.812 50.7518 897.188 50.7518C896.567 50.7518 896.055 50.4352 895.985 50.0267ZM910.265 62.4004V62.2302H910.422C910.474 62.2302 910.509 62.2642 910.509 62.3153C910.509 62.3629 910.474 62.4004 910.422 62.4004H910.265ZM910.136 62.7101C910.136 62.7272 910.15 62.7442 910.171 62.7442H910.237C910.254 62.7442 910.272 62.7272 910.272 62.7101V62.5161H910.38L910.467 62.7203C910.474 62.734 910.484 62.7442 910.498 62.7442H910.578C910.603 62.7442 910.62 62.7203 910.61 62.6965C910.578 62.6352 910.547 62.5706 910.516 62.5059C910.568 62.4889 910.648 62.4378 910.648 62.3153C910.648 62.1859 910.54 62.111 910.432 62.111H910.171C910.153 62.111 910.136 62.128 910.136 62.1451V62.7101ZM909.853 62.4276C909.853 62.1519 910.084 61.9272 910.366 61.9272C910.648 61.9272 910.878 62.1485 910.878 62.4276C910.878 62.7033 910.652 62.928 910.366 62.928C910.08 62.928 909.853 62.7033 909.853 62.4276ZM909.732 62.4276C909.732 62.768 910.014 63.0471 910.366 63.0471C910.714 63.0471 911 62.768 911 62.4276C911 62.0872 910.714 61.8081 910.366 61.8081C910.014 61.8081 909.732 62.0872 909.732 62.4276Z" fill="#FFC124"/>
</g>
<g clip-path="url(#clip6_22_358)">
<path d="M1034.49 66.2817L1041.16 58.8925L1034.49 51.5022H1041.53L1044.83 55.0919L1048.02 51.5022H1054.81L1048.17 58.862L1054.9 66.2817H1047.83L1044.56 62.6625L1041.32 66.2817H1034.49Z" fill="#FF6600"/>
<path d="M1034.49 48.1891H1026.93V51.5022H1034.49V56.4952H1026.93V61.0782H1034.49V66.2817H1021.38V43H1034.49V48.1891Z" fill="#FF6600"/>
<path d="M1015.85 43V52.528H1015.79C1014.57 51.1408 1013.04 50.6587 1011.26 50.6587C1007.63 50.6587 1004.89 53.0951 1003.92 56.3162C1002.83 52.767 1000 50.5922 995.808 50.5922C992.403 50.5922 989.715 52.0987 988.312 54.5536V51.5025H981.274V48.1898H988.954V43H975V66.2821H981.274V56.4952H987.527C987.341 57.2142 987.241 57.9839 987.241 58.7961C987.241 63.6527 991.005 67.0603 995.808 67.0603C999.848 67.0603 1002.51 65.1911 1003.92 61.7831H998.541C997.814 62.8069 997.262 63.111 995.808 63.111C994.122 63.111 992.669 61.661 992.669 59.9423H1003.62C1004.09 63.7998 1007.14 67.1265 1011.32 67.1265C1013.13 67.1265 1014.78 66.2515 1015.79 64.7742H1015.85V66.2814H1021.38V43H1015.85ZM992.843 56.5648C993.192 55.0861 994.356 54.1195 995.808 54.1195C997.407 54.1195 998.512 55.0562 998.802 56.5648C998.925 56.5648 992.843 56.5648 992.843 56.5648ZM1012.49 62.7369C1010.46 62.7369 1009.19 60.8646 1009.19 58.9096C1009.19 56.8199 1010.29 54.8104 1012.49 54.8104C1014.78 54.8104 1015.69 56.8199 1015.69 58.9096C1015.69 60.8913 1014.72 62.7369 1012.49 62.7369Z" fill="#652C8F"/>
</g>
<path fill-rule="evenodd" clip-rule="evenodd" d="M1216 110H0V109H1216V110Z" fill="#E5E7EB"/>
</g>
<defs>
<clipPath id="clip0_22_358">
<rect width="1216" height="110" fill="white"/>
</clipPath>
<clipPath id="clip1_22_358">
<rect width="90" height="28" fill="white" transform="translate(161 41)"/>
</clipPath>
<clipPath id="clip2_22_358">
<rect width="86" height="24" fill="white" transform="translate(315 43)"/>
</clipPath>
<clipPath id="clip3_22_358">
<rect width="84" height="28" fill="white" transform="translate(465 41)"/>
</clipPath>
<clipPath id="clip4_22_358">
<rect width="122" height="26" fill="white" transform="translate(613 42)"/>
</clipPath>
<clipPath id="clip5_22_358">
<rect width="112" height="26" fill="white" transform="translate(799 42)"/>
</clipPath>
<clipPath id="clip6_22_358">
<rect width="80" height="24" fill="white" transform="translate(975 43)"/>
</clipPath>
</defs>
</svg>
