<svg width="112" height="32" viewBox="0 0 112 32" fill="none" xmlns="http://www.w3.org/2000/svg">
<g clip-path="url(#clip0_22_799)">
<path d="M32.106 22.6792C31.9303 22.2892 31.7656 21.8792 31.5899 21.5292L30.7773 19.8592L30.7444 19.8292C28.3287 15.0292 25.7483 10.1492 23.0142 5.34921L22.9044 5.14921C22.6299 4.67921 22.3554 4.15921 22.0699 3.67921C21.7185 3.10921 21.3781 2.49921 20.8181 1.91921C20.2723 1.31234 19.5853 0.8234 18.8068 0.487667C18.0282 0.151934 17.1776 -0.0222168 16.3162 -0.0222168C15.4548 -0.0222168 14.6041 0.151934 13.8256 0.487667C13.0471 0.8234 12.3601 1.31234 11.8142 1.91921C11.2981 2.49921 10.9138 3.10921 10.5624 3.67921C10.2879 4.19921 10.0134 4.70921 9.72793 5.17921L9.61813 5.37921C6.92793 10.1792 4.30362 15.0592 1.88793 19.8592L1.82205 19.9192C1.58048 20.4392 1.29499 20.9792 1.02048 21.5592C0.844794 21.9092 0.669108 22.2892 0.493422 22.7092C0.0191044 23.809 -0.13236 25.0024 0.0539558 26.1717C0.240272 27.341 0.757937 28.446 1.55593 29.3776C2.35393 30.3093 3.40471 31.0355 4.60473 31.4847C5.80474 31.9338 7.11256 32.0905 8.3993 31.9392C9.63292 31.7913 10.8208 31.4171 11.8911 30.8392C13.3185 30.1092 14.6911 29.0492 16.2283 27.5192C17.7656 29.0492 19.1711 30.1092 20.5656 30.8492C21.9066 31.5661 23.4253 31.9617 24.9797 31.9992C26.7798 32.006 28.5218 31.4195 29.8841 30.3479C31.2464 29.2764 32.137 27.7921 32.3915 26.1692C32.6856 25.003 32.5861 23.7831 32.106 22.6692V22.6792ZM16.3381 24.3392C14.4495 22.1392 13.2197 20.1192 12.8024 18.3892C12.6296 17.7481 12.5923 17.083 12.6926 16.4292C12.7695 15.9192 12.9781 15.4692 13.2636 15.0892C13.9224 14.2192 15.0754 13.6792 16.3381 13.6792C16.9378 13.6625 17.5326 13.7817 18.0693 14.0261C18.6059 14.2704 19.0675 14.6323 19.4126 15.0792C19.6981 15.4792 19.9068 15.9192 19.9726 16.4292C20.0824 17.0092 20.0385 17.6792 19.8628 18.3892C19.4456 20.0892 18.2158 22.1292 16.3381 24.3392ZM30.3271 25.8192C30.2024 26.6432 29.8427 27.423 29.284 28.0809C28.7253 28.7389 27.9871 29.252 27.1428 29.5692C26.3083 29.8892 25.386 29.9792 24.4856 29.8892C23.6071 29.7892 22.7287 29.5292 21.8283 29.0492C20.3333 28.2077 18.9891 27.1622 17.8424 25.9492C20.1483 23.3492 21.5428 20.9792 22.0699 18.8692C22.3224 17.8692 22.3554 16.9692 22.2456 16.1392C22.1085 15.3525 21.7863 14.602 21.3013 13.9392C20.7474 13.2205 20.0081 12.6367 19.1485 12.2391C18.2888 11.8415 17.335 11.6424 16.3711 11.6592C14.3397 11.6592 12.5279 12.5192 11.4299 13.9292C10.9356 14.5904 10.6161 15.3468 10.4966 16.1392C10.3538 16.9792 10.3868 17.9092 10.6722 18.8692C11.1993 20.9792 12.6268 23.3792 14.8997 25.9692C13.7725 27.2054 12.4251 28.2601 10.9138 29.0892C10.0024 29.5692 9.13499 29.8192 8.25656 29.9192C6.89047 30.0786 5.51053 29.7404 4.41667 28.9783C3.32282 28.2162 2.60347 27.0917 2.41499 25.8492C2.30519 25.0492 2.38205 24.2492 2.73342 23.3492C2.84323 23.0292 3.00793 22.7092 3.18362 22.3292C3.42519 21.8092 3.71068 21.2692 3.98519 20.7292L4.02911 20.6592C6.40087 15.8892 8.99224 11.0192 11.6824 6.24921L11.7922 6.04921C12.0668 5.56921 12.3413 5.05921 12.6268 4.57921C12.9122 4.06921 13.2197 3.57921 13.615 3.17921C13.9572 2.80723 14.3847 2.50808 14.8675 2.30283C15.3503 2.09757 15.8767 1.9912 16.4095 1.9912C16.9423 1.9912 17.4687 2.09757 17.9515 2.30283C18.4343 2.50808 18.8618 2.80723 19.204 3.17921C19.5883 3.57921 19.9068 4.06921 20.1922 4.57921C20.4668 5.05921 20.7413 5.57921 21.0268 6.04921L21.1366 6.24921C23.8158 11.0192 26.4071 15.8892 28.8228 20.6592L28.8558 20.6892C29.1413 21.2092 29.3828 21.7892 29.6573 22.2892C29.833 22.6792 30.0087 22.9892 30.1185 23.3192C30.3271 24.2192 30.437 25.0192 30.3271 25.8192ZM45.6119 24.1192C44.7844 24.1302 43.9649 23.9715 43.2141 23.6547C42.4632 23.3379 41.8004 22.8712 41.2746 22.2892C40.0932 21.0492 39.4662 19.4503 39.5177 17.8092C39.4997 16.1324 40.1469 14.5061 41.3405 13.2292C41.8926 12.6398 42.5798 12.1678 43.3539 11.8465C44.1279 11.5251 44.9698 11.3622 45.8205 11.3692C46.6209 11.3493 47.4137 11.515 48.1244 11.8509C48.8351 12.1868 49.4403 12.6817 49.8832 13.2892L49.993 11.7192H53.1993V23.7992H49.982L49.8722 22.0392C49.4156 22.6879 48.7845 23.2195 48.0389 23.5835C47.2932 23.9476 46.4578 24.132 45.6119 24.1192ZM46.4464 21.2392C47.0832 21.2392 47.6432 21.0792 48.1703 20.7892C48.6534 20.4692 49.0487 20.0492 49.3562 19.5392C49.6307 19.0292 49.7734 18.4192 49.7734 17.7392C49.8162 17.1486 49.69 16.558 49.4071 16.0251C49.1241 15.4923 48.6942 15.0354 48.1593 14.6992C47.6453 14.4076 47.0519 14.253 46.4464 14.253C45.8408 14.253 45.2474 14.4076 44.7334 14.6992C44.2503 15.0192 43.855 15.4392 43.5475 15.9492C43.2572 16.5117 43.1143 17.1279 43.1303 17.7492C43.0875 18.3398 43.2137 18.9304 43.4966 19.4633C43.7796 19.9962 44.2095 20.453 44.7444 20.7892C45.2605 21.0792 45.8205 21.2392 46.4464 21.2392ZM58.6895 8.45921C58.6895 8.80921 58.6236 9.12921 58.4479 9.38921C58.2722 9.63921 58.0307 9.86921 57.7122 10.0292C57.3938 10.1892 57.0534 10.2492 56.702 10.2492C56.3507 10.2492 55.9993 10.1892 55.6809 10.0292C55.3797 9.87652 55.1265 9.65621 54.9452 9.38921C54.7751 9.10434 54.6917 8.78327 54.7036 8.45921C54.7036 8.09921 54.7805 7.77921 54.9452 7.52921C55.1209 7.22921 55.3734 7.04921 55.6809 6.88921C55.9993 6.72921 56.3397 6.65921 56.702 6.65921C57.0516 6.65188 57.3972 6.72727 57.7051 6.87801C58.0131 7.02875 58.2728 7.24968 58.4589 7.51921C58.6187 7.81076 58.6979 8.13345 58.6895 8.45921ZM54.9562 23.7592V11.6992H58.4479V23.7792H54.9452L54.9562 23.7592ZM67.7813 14.8592V14.8992C67.6166 14.8292 67.3969 14.7992 67.2322 14.7692C67.0126 14.7292 66.8369 14.7292 66.6283 14.7292C65.6511 14.7292 64.9154 14.9892 64.4322 15.5292C63.9052 16.0792 63.6636 16.8492 63.6636 17.8392V23.7692H60.1609V11.6892H63.3781L63.4879 13.5192C63.8393 12.8792 64.2566 12.3992 64.8495 12.0392C65.4393 11.6894 66.1336 11.5147 66.8369 11.5392C67.0895 11.5392 67.3311 11.5592 67.5397 11.5992C67.6495 11.6292 67.7154 11.6292 67.7813 11.6592V14.8592ZM69.1867 23.7592V6.73921H72.6785V13.2392C73.1726 12.6592 73.7326 12.2092 74.4354 11.8592C75.5479 11.3624 76.8118 11.2215 78.023 11.4592C79.2343 11.6969 80.3223 12.2993 81.1115 13.1692C82.2955 14.4118 82.9227 16.0147 82.8683 17.6592C82.8864 19.336 82.2391 20.9624 81.0456 22.2392C80.4935 22.8286 79.8062 23.3006 79.0322 23.6219C78.2582 23.9433 77.4162 24.1062 76.5656 24.0992C75.7652 24.1192 74.9724 23.9534 74.2617 23.6175C73.5509 23.2817 72.9457 22.7867 72.5028 22.1792L72.393 23.7492L69.1867 23.7792V23.7592ZM75.9397 21.2392C76.5656 21.2392 77.1256 21.0792 77.6526 20.7892C78.1358 20.4692 78.5311 20.0492 78.8385 19.5392C79.124 19.0292 79.2558 18.4192 79.2558 17.7392C79.2558 17.0692 79.124 16.4592 78.8385 15.9492C78.5502 15.4574 78.145 15.0304 77.6526 14.6992C77.1387 14.4076 76.5452 14.253 75.9397 14.253C75.3341 14.253 74.7407 14.4076 74.2268 14.6992C73.7326 15.0192 73.3483 15.4392 73.0299 15.9492C72.7395 16.5117 72.5967 17.1279 72.6126 17.7492C72.5698 18.3398 72.6961 18.9304 72.979 19.4633C73.2619 19.9962 73.6919 20.453 74.2268 20.7892C74.7428 21.0792 75.3028 21.2392 75.9397 21.2392ZM84.186 23.7692V11.6892H87.4032L87.513 13.2592C87.9173 12.6574 88.4908 12.1649 89.1742 11.8326C89.8576 11.5003 90.626 11.3403 91.4001 11.3692C92.2852 11.3553 93.1552 11.5793 93.9013 12.0133C94.6473 12.4473 95.2363 13.072 95.5946 13.8092C95.9789 14.5692 96.1875 15.5092 96.1875 16.5592V23.7992H92.6848V16.9792C92.6848 16.1392 92.4762 15.4792 92.0589 14.9892C91.6416 14.5092 91.0707 14.2492 90.346 14.2492C89.8189 14.2492 89.3577 14.3492 88.9515 14.5692C88.5671 14.7992 88.2487 15.0892 88.0071 15.4992C87.7629 15.9137 87.6418 16.379 87.6558 16.8492V23.7692H84.186ZM97.9334 23.7692V6.72921H101.436V13.2292C101.911 12.646 102.528 12.1715 103.239 11.8434C103.95 11.5153 104.735 11.3427 105.532 11.3392C106.359 11.3282 107.179 11.487 107.93 11.8038C108.68 12.1206 109.343 12.5872 109.869 13.1692C111.045 14.4117 111.667 16.0098 111.615 17.6492C111.634 19.3262 110.987 20.9528 109.792 22.2292C109.24 22.8186 108.553 23.2906 107.779 23.6119C107.005 23.9333 106.163 24.0962 105.312 24.0892C104.512 24.1092 103.719 23.9434 103.008 23.6075C102.298 23.2717 101.692 22.7767 101.249 22.1692L101.151 23.7392L97.9334 23.7692ZM104.719 21.2392C105.356 21.2392 105.916 21.0792 106.432 20.7892C106.926 20.4692 107.311 20.0492 107.629 19.5392C107.904 19.0292 108.046 18.4192 108.046 17.7392C108.089 17.1486 107.963 16.558 107.68 16.0251C107.397 15.4923 106.967 15.0354 106.432 14.6992C105.918 14.4076 105.325 14.253 104.719 14.253C104.114 14.253 103.52 14.4076 103.006 14.6992C102.523 15.0192 102.128 15.4392 101.82 15.9492C101.514 16.5066 101.37 17.1265 101.403 17.7492C101.36 18.3398 101.487 18.9304 101.77 19.4633C102.053 19.9962 102.482 20.453 103.017 20.7892C103.533 21.0792 104.06 21.2392 104.719 21.2392Z" fill="#FF385C"/>
</g>
<defs>
<clipPath id="clip0_22_799">
<rect width="112" height="32" fill="white"/>
</clipPath>
</defs>
</svg>
